<svg id="visual" viewBox="0 0 900 600" width="900" height="600" xmlns="http://www.w3.org/2000/svg" xmlns:xlink="http://www.w3.org/1999/xlink" version="1.1"><rect x="0" y="0" width="900" height="600" fill="#001220"></rect><path d="M0 362L25 349.2C50 336.3 100 310.7 150 300C200 289.3 250 293.7 300 311.3C350 329 400 360 450 367.2C500 374.3 550 357.7 600 351.8C650 346 700 351 750 342.5C800 334 850 312 875 301L900 290L900 601L875 601C850 601 800 601 750 601C700 601 650 601 600 601C550 601 500 601 450 601C400 601 350 601 300 601C250 601 200 601 150 601C100 601 50 601 25 601L0 601Z" fill="#fa7268"></path><path d="M0 395L25 400.5C50 406 100 417 150 416.2C200 415.3 250 402.7 300 386.3C350 370 400 350 450 354.7C500 359.3 550 388.7 600 404C650 419.3 700 420.7 750 425.5C800 430.3 850 438.7 875 442.8L900 447L900 601L875 601C850 601 800 601 750 601C700 601 650 601 600 601C550 601 500 601 450 601C400 601 350 601 300 601C250 601 200 601 150 601C100 601 50 601 25 601L0 601Z" fill="#eb5967"></path><path d="M0 498L25 497.3C50 496.7 100 495.3 150 483C200 470.7 250 447.3 300 434.8C350 422.3 400 420.7 450 432.5C500 444.3 550 469.7 600 466.7C650 463.7 700 432.3 750 419.7C800 407 850 413 875 416L900 419L900 601L875 601C850 601 800 601 750 601C700 601 650 601 600 601C550 601 500 601 450 601C400 601 350 601 300 601C250 601 200 601 150 601C100 601 50 601 25 601L0 601Z" fill="#da3f67"></path><path d="M0 495L25 498C50 501 100 507 150 510.5C200 514 250 515 300 511C350 507 400 498 450 490.7C500 483.3 550 477.7 600 481.5C650 485.3 700 498.7 750 505.5C800 512.3 850 512.7 875 512.8L900 513L900 601L875 601C850 601 800 601 750 601C700 601 650 601 600 601C550 601 500 601 450 601C400 601 350 601 300 601C250 601 200 601 150 601C100 601 50 601 25 601L0 601Z" fill="#c62368"></path></svg>