<svg id="visual" viewBox="0 0 900 600" width="900" height="600" xmlns="http://www.w3.org/2000/svg" xmlns:xlink="http://www.w3.org/1999/xlink" version="1.1"><rect x="0" y="0" width="900" height="600" fill="#001220"></rect><defs><linearGradient id="grad1_0" x1="33.3%" y1="0%" x2="100%" y2="100%"><stop offset="20%" stop-color="#fbae3c" stop-opacity="1"></stop><stop offset="80%" stop-color="#fbae3c" stop-opacity="1"></stop></linearGradient></defs><defs><linearGradient id="grad1_1" x1="33.3%" y1="0%" x2="100%" y2="100%"><stop offset="20%" stop-color="#fbae3c" stop-opacity="1"></stop><stop offset="80%" stop-color="#001220" stop-opacity="1"></stop></linearGradient></defs><defs><linearGradient id="grad2_0" x1="0%" y1="0%" x2="66.7%" y2="100%"><stop offset="20%" stop-color="#fbae3c" stop-opacity="1"></stop><stop offset="80%" stop-color="#fbae3c" stop-opacity="1"></stop></linearGradient></defs><defs><linearGradient id="grad2_1" x1="0%" y1="0%" x2="66.7%" y2="100%"><stop offset="20%" stop-color="#001220" stop-opacity="1"></stop><stop offset="80%" stop-color="#fbae3c" stop-opacity="1"></stop></linearGradient></defs><g transform="translate(900, 0)"><path d="M0 378.6C-72.4 372.3 -144.8 365.9 -189.3 327.9C-233.7 289.8 -250.2 219.9 -277.1 160C-304 100.1 -341.3 50 -378.6 0L0 0Z" fill="#96446e"></path><path d="M0 189.3C-36.2 186.1 -72.4 183 -94.6 163.9C-116.9 144.9 -125.1 110 -138.6 80C-152 50 -170.6 25 -189.3 0L0 0Z" fill="#fbae3c"></path></g><g transform="translate(0, 600)"><path d="M0 -378.6C49.8 -340.8 99.5 -303.1 159.5 -276.3C219.5 -249.4 289.6 -233.5 327.9 -189.3C366.1 -145.1 372.3 -72.5 378.6 0L0 0Z" fill="#96446e"></path><path d="M0 -189.3C24.9 -170.4 49.8 -151.5 79.7 -138.1C109.7 -124.7 144.8 -116.8 163.9 -94.6C183 -72.5 186.2 -36.3 189.3 0L0 0Z" fill="#fbae3c"></path></g></svg>